<?xml version="1.0" encoding="UTF-8"?>
<svg version="1.1" xmlns="http://www.w3.org/2000/svg" width="1024" height="1024">
<path d="M0 0 C5.09005049 0.00457799 10.18008797 -0.00248539 15.27013576 -0.00795984 C25.20877564 -0.01679895 35.14738512 -0.01495653 45.08602614 -0.00913456 C53.171166 -0.00459658 61.2562974 -0.00401435 69.34143817 -0.00618219 C70.49719751 -0.00648866 71.65295685 -0.00679513 72.84373919 -0.00711088 C75.19247056 -0.0077504 77.54120192 -0.00839883 79.88993328 -0.00905606 C101.85357314 -0.01474323 123.81719624 -0.00822675 145.78083336 0.00254467 C164.58170397 0.01147989 183.38254989 0.00992523 202.18342006 0.00070715 C224.07619716 -0.01002204 245.96895962 -0.0141953 267.86173898 -0.00806832 C270.20097017 -0.0074313 272.54020136 -0.00680256 274.87943256 -0.00618219 C276.6053479 -0.00571937 276.6053479 -0.00571937 278.36613022 -0.00524719 C286.43176205 -0.00352827 294.49738449 -0.00641791 302.56301486 -0.0111413 C312.40623001 -0.01677961 322.2494133 -0.01517209 332.09262485 -0.00457981 C337.10414323 0.00063729 342.11560871 0.00280216 347.12712657 -0.00387812 C398.79931923 -0.06684834 447.54236821 4.68099166 488.04352748 40.26144934 C488.87110561 40.96785559 489.69868373 41.67426184 490.55133998 42.40207434 C520.54310149 68.53909534 538.15083057 104.82411649 542.04352748 144.26144934 C542.18080385 147.12540184 542.19805248 149.98427507 542.20174587 152.85120153 C542.20668384 153.68036719 542.21162182 154.50953284 542.21670943 155.36382473 C542.231993 158.12738653 542.24042351 160.89092518 542.24884975 163.65451574 C542.2584429 165.64780896 542.2684538 167.6411002 542.27884853 169.6343894 C542.30593179 175.06826403 542.32697029 180.50214718 542.34685051 185.93605232 C542.36898032 191.73263259 542.39629859 197.52918876 542.42290676 203.32574987 C542.46728658 213.16009881 542.5079488 222.99445761 542.54621303 232.82883215 C542.58463596 242.6989655 542.62603744 252.56907892 542.67121303 262.43918371 C543.07164444 349.92784206 543.07164444 349.92784206 543.0352267 391.99875402 C543.03350388 394.3378698 543.03178312 396.67698558 543.03006446 399.01610136 C543.02199957 408.92175573 543.01058641 418.82736593 542.98533589 428.73299259 C542.93549361 449.4556854 543.07848971 470.13927463 543.75621885 490.85148746 C544.06882123 500.4438471 544.15041402 510.01348466 544.02790248 519.60910559 C544.01103081 521.22315269 543.99437541 522.83720207 543.97791469 524.45125341 C543.94237227 527.75810111 543.90137765 531.06482304 543.85651577 534.37155676 C543.81219805 537.68924166 543.77767396 541.00680039 543.75202358 544.32468176 C543.60395007 563.29159779 543.04986791 581.87826901 540.39521205 600.69257116 C539.86831684 604.54127458 539.45541355 608.39890087 539.04352748 612.26144934 C538.38352748 612.26144934 537.72352748 612.26144934 537.04352748 612.26144934 C536.93137905 613.2630509 536.81923061 614.26465246 536.70368373 615.29660559 C536.12861323 619.2820942 534.92283573 622.95005979 533.48102748 626.69894934 C533.21854213 627.38634192 532.95605678 628.07373449 532.68561733 628.78195715 C526.05009552 645.71929023 516.90488873 660.44693084 505.04352748 674.26144934 C503.96264858 675.52795324 503.96264858 675.52795324 502.85993373 676.82004309 C474.67549052 709.02365824 432.32055765 726.91277368 390.04352748 730.26144934 C386.19093109 730.49597299 382.33753285 730.66825984 378.48102748 730.82394934 C376.96799037 730.88872473 376.96799037 730.88872473 375.42438686 730.95480871 C372.96420174 731.05974552 370.50393574 731.16190635 368.04352748 731.26144934 C368.04352748 731.92144934 368.04352748 732.58144934 368.04352748 733.26144934 C367.38352748 733.26144934 366.72352748 733.26144934 366.04352748 733.26144934 C366.04352748 732.60144934 366.04352748 731.94144934 366.04352748 731.26144934 C365.28209438 731.26668615 364.52066127 731.27192297 363.73615444 731.27731848 C360.27612056 731.29814459 356.8160999 731.31112747 353.35602748 731.32394934 C352.15784389 731.33232824 350.9596603 731.34070715 349.72516811 731.34933996 C348.56823452 731.35256262 347.41130092 731.35578527 346.21930873 731.35910559 C345.156235 731.3643424 344.09316127 731.36957922 342.99787319 731.37497473 C340.23007659 731.26861778 337.73559851 730.89039722 335.04352748 730.26144934 C334.71352748 730.92144934 334.38352748 731.58144934 334.04352748 732.26144934 C333.15723376 732.09892959 332.27094003 731.93640984 331.35778892 731.76896524 C325.60481321 730.95546447 319.81318535 731.12744899 314.0153445 731.14119482 C312.69854322 731.1403404 311.38174194 731.13948597 310.02503759 731.13860565 C306.38093678 731.13637477 302.73686548 731.14036271 299.09276843 731.14538372 C295.15897607 731.14970824 291.22518533 731.14824037 287.29139125 731.14748144 C280.47943212 731.14695748 273.66748257 731.15009098 266.85552585 731.15571928 C257.00661944 731.16385152 247.15771766 731.16645127 237.30880826 731.16770727 C221.32902129 731.16989508 205.34923942 731.17654782 189.36945522 731.18600988 C173.8479711 731.19519101 158.32648838 731.20226842 142.80500209 731.2065177 C141.36952232 731.20691178 141.36952232 731.20691178 139.90504295 731.20731383 C135.10405053 731.20861888 130.3030581 731.20988258 125.50206566 731.21112573 C85.68254936 731.2214899 45.86303876 731.23910085 6.04352748 731.26144934 C5.71352748 731.92144934 5.38352748 732.58144934 5.04352748 733.26144934 C4.38352748 732.93144934 3.72352748 732.60144934 3.04352748 732.26144934 C-0.64202638 731.0464904 -4.19999968 731.13207669 -8.05803502 731.12863684 C-8.73570927 731.12768011 -9.41338353 731.12672338 -10.11159337 731.12573767 C-11.53872851 731.12505919 -12.96586679 731.12689028 -14.39299595 731.13107824 C-16.58089145 731.13644791 -18.76858323 731.13111357 -20.95647252 731.12473059 C-22.3444938 731.1253911 -23.73251496 731.12667171 -25.12053502 731.12863684 C-26.38333287 731.12976477 -27.64613072 731.1308927 -28.94719517 731.13205481 C-31.87979538 731.05295361 -31.87979538 731.05295361 -33.95647252 732.26144934 C-33.95647252 731.60144934 -33.95647252 730.94144934 -33.95647252 730.26144934 C-34.60487095 730.30785559 -35.25326939 730.35426184 -35.92131627 730.40207434 C-46.18618896 730.77975691 -55.98076965 728.96616447 -66.06584752 727.23410559 C-71.02037845 726.38721153 -75.9552386 725.75843388 -80.95647252 725.26144934 C-80.95647252 724.60144934 -80.95647252 723.94144934 -80.95647252 723.26144934 C-81.92584752 723.15832434 -82.89522252 723.05519934 -83.89397252 722.94894934 C-88.47019052 722.27570852 -92.62892783 720.86703113 -96.95647252 719.26144934 C-98.07280064 718.84894934 -99.18912877 718.43644934 -100.33928502 718.01144934 C-113.87586547 712.87254567 -127.55823305 706.30362813 -138.95647252 697.26144934 C-138.95647252 696.60144934 -138.95647252 695.94144934 -138.95647252 695.26144934 C-139.61647252 695.07582434 -140.27647252 694.89019934 -140.95647252 694.69894934 C-145.2255252 692.65336159 -148.69810958 689.6896029 -151.95647252 686.26144934 C-151.95647252 685.60144934 -151.95647252 684.94144934 -151.95647252 684.26144934 C-152.53526158 684.01394934 -153.11405064 683.76644934 -153.71037877 683.51144934 C-172.99239119 672.78059025 -187.95935543 639.90108536 -194.00725377 619.91379309 C-195.31715784 614.87362721 -196.53997398 609.81292995 -197.61467564 604.71701574 C-198.45195872 600.57278226 -198.45195872 600.57278226 -200.95647252 597.26144934 C-200.29647252 597.26144934 -199.63647252 597.26144934 -198.95647252 597.26144934 C-199.08924595 596.55246496 -199.22201939 595.84348059 -199.35881627 595.11301184 C-203.65424288 569.21503826 -202.05594458 542.17845423 -201.95647252 516.01144934 C-201.93271328 509.671927 -201.91247385 503.3324282 -201.9005338 496.99287176 C-201.89410689 494.48574408 -201.88162363 491.97869541 -201.86882603 489.47159338 C-201.865195 487.93898093 -201.86184308 486.40636779 -201.85881627 484.87375402 C-201.85364995 484.18811377 -201.84848362 483.50247351 -201.84316075 482.79605627 C-201.84272738 478.83826424 -202.26809619 475.15188726 -202.95647252 471.26144934 C-202.8723491 468.6564393 -202.72995761 466.09850218 -202.52678502 463.50363684 C-201.80416637 452.59937703 -201.80562325 441.70969363 -201.82610142 430.78537512 C-201.83145356 427.39844786 -201.82612661 424.01165381 -201.81975377 420.62473059 C-201.81753038 409.52455576 -201.94500134 398.47258782 -202.69496739 387.39429235 C-203.05929446 381.6436064 -203.05929446 381.6436064 -202.47185338 379.46027136 C-201.74597151 376.36336738 -201.82907947 373.4125548 -201.82707798 370.23312902 C-201.82532567 369.53338461 -201.82357335 368.83364019 -201.82176793 368.1126914 C-201.81737265 365.80287702 -201.82028051 363.49313948 -201.82366002 361.18332434 C-201.82298601 359.57152813 -201.82201517 357.95973202 -201.82076085 356.34793615 C-201.81928677 352.9686742 -201.82142802 349.58943868 -201.82610142 346.21017981 C-201.83178023 341.89520027 -201.82852963 337.5802832 -201.82252896 333.265306 C-201.81889989 329.93486586 -201.820073 326.60444029 -201.82265675 323.27399969 C-201.82332049 321.68411009 -201.82251707 320.09421913 -201.8201772 318.50433111 C-201.81761409 316.2719682 -201.8215431 314.03970346 -201.82707798 311.80734777 C-201.82827137 309.90683661 -201.82827137 309.90683661 -201.82948887 307.96793127 C-201.922987 305.2388466 -202.12626565 302.70390257 -202.49138463 300.01251745 C-202.90868046 296.64690606 -202.72472981 294.00679371 -202.22313511 290.6832633 C-201.58787995 284.91391338 -201.81444896 279.06740028 -201.82366002 273.26926184 C-201.82281311 271.78027848 -201.8216564 270.29129527 -201.82021153 268.80231237 C-201.81793322 264.82130132 -201.82269827 260.84032517 -201.82871068 256.85931921 C-201.83148009 254.37966894 -201.83130104 251.90003624 -201.83012974 249.42038488 C-201.82182402 229.87072526 -202.02032056 210.35569851 -202.61562169 190.81409216 C-203.20782631 170.91565884 -202.50240743 151.88067417 -198.95647252 132.26144934 C-198.79485631 131.35797766 -198.63324009 130.45450598 -198.46672642 129.52365637 C-197.55682124 124.68017594 -196.37668632 119.98542292 -194.95647252 115.26144934 C-194.76923619 114.61530676 -194.58199986 113.96916418 -194.3890897 113.30344152 C-189.05437517 95.25621575 -179.99941679 77.71745109 -167.95647252 63.26144934 C-167.21010533 62.2933634 -166.46373814 61.32527746 -165.69475377 60.32785559 C-161.67343225 55.12251841 -161.67343225 55.12251841 -159.95647252 53.26144934 C-159.29647252 53.26144934 -158.63647252 53.26144934 -157.95647252 53.26144934 C-157.6219608 52.42807043 -157.6219608 52.42807043 -157.28069127 51.57785559 C-149.14421796 37.34502764 -128.91183054 26.8406524 -114.95647252 19.26144934 C-112.5783256 17.89911089 -110.20070612 16.53586357 -107.82366002 15.17160559 C-105.87185884 14.22020459 -104.06401272 13.76420225 -101.95647252 13.26144934 C-100.40635307 12.6577186 -98.86511843 12.03088035 -97.33147252 11.38644934 C-66.50523354 -1.1538106 -32.66153317 -0.04356638 0 0 Z " fill="#13B1FE" transform="translate(340.9564725160599,146.73855066299438)"/>
<path d="M0 0 C4.83963247 4.16818796 9.52020379 8.48804337 14.16796875 12.8671875 C14.94140625 13.57488281 15.71484375 14.28257812 16.51171875 15.01171875 C27.10298926 25.04656382 35.30439329 37.65551737 43.16796875 49.8671875 C43.514646 49.37951904 43.86132324 48.89185059 44.21850586 48.3894043 C55.83043454 32.08970411 67.62497123 15.68943685 83.16796875 2.8671875 C84.34552734 1.84044922 84.34552734 1.84044922 85.546875 0.79296875 C111.14218683 -21.06413062 143.49789343 -32.30297574 177.04296875 -32.5703125 C177.89592529 -32.58046387 178.74888184 -32.59061523 179.62768555 -32.60107422 C188.79029524 -32.47866472 196.87057194 -30.68237863 206.16796875 -29.1328125 C206.16796875 86.3671875 206.16796875 201.8671875 206.16796875 320.8671875 C205.17796875 321.1971875 204.18796875 321.5271875 203.16796875 321.8671875 C202.45747999 323.17769425 201.79472715 324.51463579 201.16796875 325.8671875 C199.83032227 327.5078125 199.83032227 327.5078125 198.296875 329.1171875 C197.72815674 329.71942139 197.15943848 330.32165527 196.57348633 330.94213867 C195.96529053 331.57740479 195.35709473 332.2126709 194.73046875 332.8671875 C193.45397774 334.21702313 192.17794115 335.56728862 190.90234375 336.91796875 C190.26876953 337.58650879 189.63519531 338.25504883 188.98242188 338.94384766 C186.45486197 341.62308837 183.96355395 344.33427201 181.48046875 347.0546875 C175.98120777 353.07228825 175.98120777 353.07228825 173.2890625 355.99609375 C172.80848389 356.51856689 172.32790527 357.04104004 171.83276367 357.5793457 C170.51266464 359.01425576 169.19190467 360.44855769 167.87109375 361.8828125 C165.82177719 364.12576527 163.8230439 366.40831273 161.83203125 368.703125 C158.09463014 372.98835363 154.20809907 377.11970796 150.29296875 381.2421875 C145.24190068 386.58399773 140.23914813 391.95597897 135.34375 397.44140625 C128.02358433 405.60266815 120.50459275 413.58204196 112.98046875 421.5546875 C108.04582459 426.78431564 103.15966133 432.04586394 98.37109375 437.41015625 C91.50029646 445.07280075 84.51866142 452.59091923 77.1875 459.81640625 C74.61352991 462.43020566 72.23499766 465.18535195 69.84765625 467.96875 C67.64509655 470.45815469 65.28444239 472.7616978 62.9140625 475.08984375 C61.10319232 476.93312324 59.41475521 478.84541549 57.73046875 480.8046875 C54.58589415 484.46266204 51.23251469 487.8471063 47.76953125 491.203125 C46.08168151 492.79141483 46.08168151 492.79141483 45.16796875 494.8671875 C41.67709953 493.40102243 39.75078061 491.53438338 37.29296875 488.6796875 C32.73644485 483.48193093 28.0450666 478.4285951 23.30517578 473.39770508 C20.38567337 470.2866025 17.51906122 467.14436877 14.72265625 463.921875 C11.06418526 459.71387013 7.25612427 455.66099188 3.41796875 451.6171875 C-2.16287887 445.71273804 -7.7007087 439.77622789 -13.17578125 433.7734375 C-15.08586282 431.68358355 -17.00150665 429.60012989 -18.92578125 427.5234375 C-19.45204102 426.9552832 -19.97830078 426.38712891 -20.52050781 425.80175781 C-21.51639548 424.72739495 -22.51305963 423.65375097 -23.51074219 422.58105469 C-26.13273641 419.75047195 -28.70034777 416.88190023 -31.23046875 413.96875 C-34.79160109 409.88162984 -38.48201824 405.92967208 -42.20703125 401.9921875 C-47.83036148 396.02093701 -53.37728134 389.99329125 -58.83203125 383.8671875 C-70.32835704 371.03795437 -82.03424913 358.41852057 -93.83203125 345.8671875 C-102.55665969 336.58529736 -111.23949219 327.27152167 -119.83203125 317.8671875 C-125.79353363 311.34631038 -131.76088908 304.87557815 -138.0546875 298.671875 C-140.42300649 296.26712033 -142.60972857 293.72768655 -144.8125 291.171875 C-151.10081381 283.99565615 -157.6949151 277.07939179 -164.21240234 270.11181641 C-171.8815501 261.91218991 -179.48260937 253.65723152 -186.83203125 245.16796875 C-188.40265181 243.36114158 -189.98786733 241.57103027 -191.58203125 239.78515625 C-219.10717852 208.67946576 -236.38119004 169.18896774 -236.14453125 127.3046875 C-236.14204376 126.59965088 -236.13955627 125.89461426 -236.13699341 125.16821289 C-235.91793144 84.92453699 -221.38947292 45.55560401 -193.78515625 15.97265625 C-192.19142401 14.25461289 -190.71744199 12.51853415 -189.26953125 10.6796875 C-141.3220997 -44.64427198 -54.30945441 -43.90977165 0 0 Z " fill="#FE4143" transform="translate(467.83203125,281.1328125)"/>
<path d="M0 0 C0 73.59 0 147.18 0 223 C-0.99 223.33 -1.98 223.66 -3 224 C-3.71048876 225.31050675 -4.3732416 226.64744829 -5 228 C-6.33764648 229.640625 -6.33764648 229.640625 -7.87109375 231.25 C-8.43981201 231.85223389 -9.00853027 232.45446777 -9.59448242 233.07495117 C-10.20267822 233.71021729 -10.81087402 234.3454834 -11.4375 235 C-12.71399101 236.34983563 -13.9900276 237.70010112 -15.265625 239.05078125 C-15.89919922 239.71932129 -16.53277344 240.38786133 -17.18554688 241.07666016 C-19.71310678 243.75590087 -22.2044148 246.46708451 -24.6875 249.1875 C-30.18676098 255.20510075 -30.18676098 255.20510075 -32.87890625 258.12890625 C-33.35948486 258.65137939 -33.84006348 259.17385254 -34.33520508 259.7121582 C-35.65530411 261.14706826 -36.97606408 262.58137019 -38.296875 264.015625 C-40.34619156 266.25857777 -42.34492485 268.54112523 -44.3359375 270.8359375 C-48.07333861 275.12116613 -51.95986968 279.25252046 -55.875 283.375 C-60.92606807 288.71681023 -65.92882062 294.08879147 -70.82421875 299.57421875 C-78.14438442 307.73548065 -85.663376 315.71485446 -93.1875 323.6875 C-98.12214416 328.91712814 -103.00830742 334.17867644 -107.796875 339.54296875 C-114.66767229 347.20561325 -121.64930733 354.72373173 -128.98046875 361.94921875 C-131.55443884 364.56301816 -133.93297109 367.31816445 -136.3203125 370.1015625 C-138.5228722 372.59096719 -140.88352636 374.8945103 -143.25390625 377.22265625 C-145.06477643 379.06593574 -146.75321354 380.97822799 -148.4375 382.9375 C-151.5820746 386.59547454 -154.93545406 389.9799188 -158.3984375 393.3359375 C-160.08628724 394.92422733 -160.08628724 394.92422733 -161 397 C-164.49086922 395.53383493 -166.41718814 393.66719588 -168.875 390.8125 C-173.53862931 385.48818987 -178.35257597 380.32273585 -183.21435547 375.17895508 C-184.07891357 374.258927 -184.07891357 374.258927 -184.9609375 373.3203125 C-185.73123291 372.50457764 -185.73123291 372.50457764 -186.51708984 371.67236328 C-189.5976752 368.19820956 -191.37586986 366.11818013 -191.36914349 361.33797073 C-191.3781032 359.93092451 -191.3781032 359.93092451 -191.38724393 358.49545312 C-191.37413614 356.95460538 -191.37413614 356.95460538 -191.36076355 355.38262939 C-191.36332682 354.28890321 -191.3658901 353.19517704 -191.36853105 352.06830764 C-191.37348602 348.39076769 -191.3569473 344.71363515 -191.34057617 341.03613281 C-191.33973027 338.40503448 -191.34020431 335.77393544 -191.34190369 333.14283752 C-191.34347724 327.4717713 -191.33405949 321.80080857 -191.31719017 316.12976837 C-191.29281585 307.93039944 -191.28499651 299.73108059 -191.2812262 291.53167936 C-191.27465925 278.22893625 -191.25469149 264.92624831 -191.22631836 251.62353516 C-191.19878409 238.7006864 -191.17754742 225.77785263 -191.16479492 212.85498047 C-191.16400675 212.05850354 -191.16321858 211.26202662 -191.16240653 210.44141403 C-191.15849143 206.44574964 -191.1547003 202.45008514 -191.15097082 198.45442057 C-191.11986732 165.30289816 -191.06456016 132.15147833 -191 99 C-159.32 99 -127.64 99 -95 99 C-95 66.66 -95 34.32 -95 1 C-71.7659375 0.7525 -71.7659375 0.7525 -48.0625 0.5 C-43.16414307 0.44779297 -38.26578613 0.39558594 -33.21899414 0.34179688 C-27.25671387 0.27832031 -27.25671387 0.27832031 -24.46922302 0.24865723 C-22.51426676 0.22784344 -20.55931072 0.20700853 -18.60435486 0.18615723 C-15.65038097 0.15465457 -12.69640639 0.12321807 -9.74243164 0.09179688 C-8.86540368 0.08242851 -7.98837572 0.07306015 -7.08477116 0.0634079 C-1.11402634 0 -1.11402634 0 0 0 Z " fill="#FED100" transform="translate(674,379)"/>
<path d="M0 0 C9.66144122 2.07030883 17.31734615 3.92032747 26 8 C26.59506348 8.2690918 27.19012695 8.53818359 27.80322266 8.81542969 C43.49502533 15.93892051 57.29645887 25.30649769 69 38 C69.83273437 38.83273437 70.66546875 39.66546875 71.5234375 40.5234375 C103.00277089 72.00277089 116.89318931 114.94039185 117.375 158.6875 C117.33278845 179.13899723 113.61230927 198.06352345 106 217 C105.51011525 218.27332158 105.02051242 219.54675167 104.53125 220.8203125 C99.23351066 233.9763652 91.62766381 245.78920331 83 257 C82.36449219 257.82886719 81.72898437 258.65773438 81.07421875 259.51171875 C76.79231897 264.97779121 72.21422115 270.10482371 67.5078125 275.20703125 C65.05046944 277.94379183 62.73582679 280.75409354 60.4375 283.625 C56.89993356 288.01108326 53.12723986 291.97733794 49.09765625 295.91015625 C46.63370099 298.36493477 44.38718442 300.95453484 42.125 303.59375 C39.25906868 306.83899576 36.28162773 309.97434134 33.3125 313.125 C28.7259295 318.00240546 24.26025368 322.94984554 19.9375 328.0625 C15.67180981 333.10455735 11.29892601 338.0279308 6.8125 342.875 C6.24716553 343.48867432 5.68183105 344.10234863 5.09936523 344.73461914 C3.75486329 346.17719015 2.38041831 347.5917593 1 349 C0.67 349 0.34 349 0 349 C0 233.83 0 118.66 0 0 Z " fill="#00D1D3" transform="translate(674,252)"/>
<path d="M0 0 C0.33 0 0.66 0 1 0 C1 73.59 1 147.18 1 223 C0.01 223.33 -0.98 223.66 -2 224 C-2.71048876 225.31050675 -3.3732416 226.64744829 -4 228 C-5.33764648 229.640625 -5.33764648 229.640625 -6.87109375 231.25 C-7.43981201 231.85223389 -8.00853027 232.45446777 -8.59448242 233.07495117 C-9.20267822 233.71021729 -9.81087402 234.3454834 -10.4375 235 C-11.71399101 236.34983563 -12.9900276 237.70010112 -14.265625 239.05078125 C-14.89919922 239.71932129 -15.53277344 240.38786133 -16.18554688 241.07666016 C-18.71310678 243.75590087 -21.2044148 246.46708451 -23.6875 249.1875 C-29.18676098 255.20510075 -29.18676098 255.20510075 -31.87890625 258.12890625 C-32.59977417 258.91261597 -32.59977417 258.91261597 -33.33520508 259.7121582 C-34.65530411 261.14706826 -35.97606408 262.58137019 -37.296875 264.015625 C-39.34619156 266.25857777 -41.34492485 268.54112523 -43.3359375 270.8359375 C-47.07333861 275.12116613 -50.95986968 279.25252046 -54.875 283.375 C-59.9076729 288.69735622 -64.89514704 294.04726361 -69.76953125 299.515625 C-72.63108809 302.70292824 -75.53184149 305.85292179 -78.4375 309 C-78.95860352 309.56493164 -79.47970703 310.12986328 -80.01660156 310.71191406 C-84.49943625 315.56166063 -86.25871864 317.38715624 -93 318 C-94.74061537 316.25938463 -94.12501765 313.99908838 -94.13374341 311.67907345 C-94.13151268 310.90907132 -94.12928196 310.13906918 -94.12698364 309.34573364 C-94.12854363 308.53268292 -94.13010362 307.7196322 -94.13171089 306.88194358 C-94.13572804 304.13107595 -94.13252728 301.38026267 -94.12939453 298.62939453 C-94.13074929 296.66182421 -94.13252964 294.69425415 -94.13470459 292.72668457 C-94.13929928 287.33183257 -94.13747349 281.93699953 -94.1343255 276.54214716 C-94.13177791 270.80152495 -94.13414923 265.06090427 -94.13571167 259.32028198 C-94.13754072 249.57273068 -94.13512281 239.82518688 -94.13037109 230.07763672 C-94.1256497 220.28466285 -94.12543702 210.49170424 -94.13037109 200.69873047 C-94.15152268 157.72395494 -94.15958776 114.74970865 -93.76855469 71.77636719 C-93.75874651 70.69835799 -93.74893834 69.62034879 -93.73883295 68.50967264 C-93.53297101 46.33933745 -93.25755058 24.16979016 -93 2 C-62.64 2 -32.28 2 -1 2 C-0.67 1.34 -0.34 0.68 0 0 Z " fill="#FEB407" transform="translate(673,379)"/>
<path d="M0 0 C0.66 0 1.32 0 2 0 C1.67 4.29 1.34 8.58 1 13 C-1.31 13.66 -3.62 14.32 -6 15 C-6.33 16.98 -6.66 18.96 -7 21 C-7.94875 21.20625 -8.8975 21.4125 -9.875 21.625 C-11.421875 22.305625 -11.421875 22.305625 -13 23 C-13.309375 23.99 -13.61875 24.98 -13.9375 26 C-14.288125 26.99 -14.63875 27.98 -15 29 C-18.625 30.375 -18.625 30.375 -22 31 C-22.33 35.62 -22.66 40.24 -23 45 C-26.465 45.495 -26.465 45.495 -30 46 C-30.33 48.31 -30.66 50.62 -31 53 C-32.60875 53.0928125 -32.60875 53.0928125 -34.25 53.1875 C-38.74483208 54.16138028 -39.45739573 55.3176076 -42 59 C-42.721875 59.45375 -43.44375 59.9075 -44.1875 60.375 C-46.93635983 62.83949502 -46.73194837 65.44831591 -47 69 C-50.465 69.99 -50.465 69.99 -54 71 C-54.33 72.98 -54.66 74.96 -55 77 C-58.465 77.495 -58.465 77.495 -62 78 C-62.33 80.31 -62.66 82.62 -63 85 C-66.465 85.99 -66.465 85.99 -70 87 C-70.33 88.98 -70.66 90.96 -71 93 C-71.94875 93.20625 -72.8975 93.4125 -73.875 93.625 C-75.421875 94.305625 -75.421875 94.305625 -77 95 C-77.495 96.485 -77.495 96.485 -78 98 C-78.495 99.485 -78.495 99.485 -79 101 C-81 101.66666667 -83 102.33333333 -85 103 C-85.495 104.485 -85.495 104.485 -86 106 C-86.495 107.485 -86.495 107.485 -87 109 C-89 109.66666667 -91 110.33333333 -93 111 C-93.71706982 112.98248715 -94.38290413 114.98415349 -95 117 C-96.63631892 118.04892238 -98.30485863 119.04906703 -100 120 C-100.474375 120.845625 -100.94875 121.69125 -101.4375 122.5625 C-103 125 -103 125 -106.0625 125.9375 C-107.031875 126.288125 -108.00125 126.63875 -109 127 C-109.70381157 128.98723268 -110.3711811 130.98777953 -111 133 C-113.5 134.25 -113.5 134.25 -116 135 C-118.15622464 136.76589761 -118.15622464 136.76589761 -118.3125 138.9375 C-119.30846332 141.92538995 -121.34522033 142.419774 -124 144 C-124.474375 144.845625 -124.94875 145.69125 -125.4375 146.5625 C-127 149 -127 149 -130.0625 149.9375 C-131.031875 150.288125 -132.00125 150.63875 -133 151 C-133.71706982 152.98248715 -134.38290413 154.98415349 -135 157 C-136.63631892 158.04892238 -138.30485863 159.04906703 -140 160 C-140.45375 160.825 -140.9075 161.65 -141.375 162.5 C-143 165 -143 165 -146.625 166.5 C-147.73875 166.995 -148.8525 167.49 -150 168 C-151.05167527 170.57732914 -151.05167527 170.57732914 -151 173 C-153.97 173.33 -156.94 173.66 -160 174 C-159.34 173.67 -158.68 173.34 -158 173 C-157.74605469 172.43796875 -157.49210938 171.8759375 -157.23046875 171.296875 C-155.49603061 168.05925713 -152.93318413 165.76833552 -150.3125 163.25 C-146.2106045 159.23596304 -142.29750747 155.16535381 -138.57421875 150.79296875 C-136.41056386 148.32865711 -134.0727731 146.06263553 -131.734375 143.765625 C-129.98797581 141.98775916 -128.36780761 140.14514605 -126.75 138.25 C-123.8171838 134.84159199 -120.69899811 131.65630156 -117.5 128.5 C-113.86223782 124.90546478 -110.38737723 121.24069959 -107.06640625 117.3515625 C-103.56189182 113.36343833 -99.90192286 109.51932419 -96.27001953 105.64746094 C-92.8240943 101.96874023 -89.4168849 98.26289489 -86.0625 94.5 C-83.03141699 91.1047388 -79.89524239 87.87111156 -76.65234375 84.6796875 C-75.00620209 83.00630473 -73.46841607 81.27906955 -71.9375 79.5 C-68.43888248 75.44065597 -64.78989798 71.53344979 -61.125 67.625 C-57.21120988 63.45001793 -53.3118915 59.26874741 -49.5 55 C-45.68810435 50.73124794 -41.78865664 46.55011178 -37.875 42.375 C-32.60656168 36.76082682 -32.60656168 36.76082682 -27.5 31 C-24.15035137 27.10624601 -20.6363221 23.37228442 -17.125 19.625 C-7.59655203 10.48451194 -7.59655203 10.48451194 0 0 Z " fill="#42BEDA" transform="translate(671,603)"/>
<path d="M0 0 C0.33 0 0.66 0 1 0 C1 31.68 1 63.36 1 96 C-30.68 96 -62.36 96 -95 96 C-95 183.78 -95 271.56 -95 362 C-97.31 360.02 -99.62 358.04 -102 356 C-102 355.34 -102 354.68 -102 354 C-100.68 354 -99.36 354 -98 354 C-97.67 268.53 -97.34 183.06 -97 95 C-49.48 94.505 -49.48 94.505 -1 94 C-1.03961717 63.43858988 -1.03961717 63.43858988 -1.09008789 32.87719727 C-1.09460449 26.97839355 -1.09460449 26.97839355 -1.09544373 24.2205658 C-1.09698351 22.28644074 -1.10050913 20.35231667 -1.10557556 18.41819763 C-1.1128512 15.4956596 -1.11390748 12.57318044 -1.11352539 9.65063477 C-1.1171235 8.78297517 -1.12072161 7.91531557 -1.12442875 7.02136326 C-1.11402634 1.11402634 -1.11402634 1.11402634 0 0 Z " fill="#FA343C" transform="translate(578,382)"/>
<path d="M0 0 C0.66 0 1.32 0 2 0 C1.67 4.29 1.34 8.58 1 13 C-1.31 13.66 -3.62 14.32 -6 15 C-6.33 16.98 -6.66 18.96 -7 21 C-7.94875 21.20625 -8.8975 21.4125 -9.875 21.625 C-11.421875 22.305625 -11.421875 22.305625 -13 23 C-13.309375 23.99 -13.61875 24.98 -13.9375 26 C-14.288125 26.99 -14.63875 27.98 -15 29 C-18.625 30.375 -18.625 30.375 -22 31 C-22.33 35.62 -22.66 40.24 -23 45 C-26.465 45.495 -26.465 45.495 -30 46 C-30.33 48.31 -30.66 50.62 -31 53 C-32.60875 53.0928125 -32.60875 53.0928125 -34.25 53.1875 C-38.74483208 54.16138028 -39.45739573 55.3176076 -42 59 C-43.0828125 59.680625 -43.0828125 59.680625 -44.1875 60.375 C-46.93635983 62.83949502 -46.73194837 65.44831591 -47 69 C-49.10405391 69.16808419 -51.20824758 69.33441948 -53.3125 69.5 C-54.48425781 69.5928125 -55.65601563 69.685625 -56.86328125 69.78125 C-58.905194 69.92364989 -60.9531279 70 -63 70 C-58.92220188 65.16234081 -54.71167181 60.48114443 -50.375 55.875 C-49.14166459 54.55883967 -47.90859661 53.2424287 -46.67578125 51.92578125 C-46.0617041 51.2704541 -45.44762695 50.61512695 -44.81494141 49.93994141 C-36.09236641 40.64771672 -36.09236641 40.64771672 -27.625 31.125 C-24.22785689 27.1949717 -20.67608604 23.41528563 -17.125 19.625 C-7.59657782 10.48449619 -7.59657782 10.48449619 0 0 Z " fill="#46B8D9" transform="translate(671,603)"/>
<path d="M0 0 C0.33 0 0.66 0 1 0 C1.78861685 5.57238867 2.15097376 10.9662383 2.15821838 16.5897522 C2.16562535 17.83350068 2.16562535 17.83350068 2.17318195 19.10237539 C2.18846552 21.86593719 2.19689603 24.62947584 2.20532227 27.39306641 C2.21491542 29.38635962 2.22492631 31.37965087 2.23532104 33.37294006 C2.2624043 38.80681469 2.2834428 44.24069784 2.30332303 49.67460299 C2.32545283 55.47118325 2.35277111 61.26773942 2.37937927 67.06430054 C2.4237591 76.89864947 2.46442132 86.73300828 2.50268555 96.56738281 C2.54110848 106.43751616 2.58250996 116.30762958 2.62768555 126.17773438 C3.02811696 213.66639273 3.02811696 213.66639273 2.99169922 255.73730469 C2.9899764 258.07642046 2.98825564 260.41553624 2.98653698 262.75465202 C2.97847211 272.66028013 2.96707364 282.56586416 2.94180197 292.47146451 C2.89356672 312.54412117 2.92812319 332.59050107 3.68451595 352.6515255 C4.10839253 364.47078328 3.77092802 376.20182941 3 388 C2.67 388 2.34 388 2 388 C0.86878479 379.84535809 0.84685369 371.74453511 0.84178162 363.52940369 C0.83721017 361.95833558 0.8322093 360.38726868 0.82681805 358.81620318 C0.8132939 354.51534348 0.80583525 350.21449164 0.79939139 345.9136163 C0.79136218 341.26954999 0.77767313 336.62549991 0.76467896 331.98144531 C0.74295188 323.94069364 0.72479366 315.8999403 0.70907402 307.85917473 C0.686341 296.23364255 0.65820297 284.60812837 0.62875474 272.98261148 C0.58112086 254.12000741 0.53784531 235.25739597 0.49731445 216.39477539 C0.45793812 198.07380602 0.41650678 179.75284318 0.37231445 161.43188477 C0.36959018 160.30217795 0.36686591 159.17247114 0.36405908 158.00853079 C0.35037925 152.34100341 0.33665905 146.67347613 0.32291877 141.0059489 C0.20902005 94.00397959 0.10219612 47.00199611 0 0 Z " fill="#19AAF7" transform="translate(881,283)"/>
<path d="M0 0 C0.33 0 0.66 0 1 0 C1.02900455 3.6041498 1.04680018 7.20826962 1.0625 10.8125 C1.07087891 11.83666016 1.07925781 12.86082031 1.08789062 13.91601562 C1.09111328 14.89892578 1.09433594 15.88183594 1.09765625 16.89453125 C1.10289307 17.80050049 1.10812988 18.70646973 1.11352539 19.63989258 C1 22 1 22 0 25 C-0.13502514 26.50598277 -0.22380128 28.01641174 -0.28125 29.52734375 C-0.31863281 30.40197266 -0.35601562 31.27660156 -0.39453125 32.17773438 C-0.44673828 33.54381836 -0.44673828 33.54381836 -0.5 34.9375 C-0.56911889 36.73843102 -0.64190244 38.53922597 -0.71875 40.33984375 C-0.74904297 41.13769287 -0.77933594 41.93554199 -0.81054688 42.75756836 C-1 45 -1 45 -1.50474548 46.75605774 C-2.13183334 49.59732196 -2.11944109 52.23498152 -2.11352539 55.14550781 C-2.11344986 56.38649231 -2.11337433 57.62747681 -2.11329651 58.90606689 C-2.10819031 60.25508667 -2.10297432 61.60410604 -2.09765625 62.953125 C-2.09579024 64.33746286 -2.0943672 65.72180138 -2.09336853 67.10614014 C-2.08955773 70.74261308 -2.07973975 74.37904582 -2.06866455 78.01550293 C-2.0584195 81.72907976 -2.05386429 85.4426631 -2.04882812 89.15625 C-2.03811616 96.43751829 -2.02105704 103.7187535 -2 111 C-2.66 111 -3.32 111 -4 111 C-3.99607239 110.43090912 -3.99214478 109.86181824 -3.98809814 109.27548218 C-3.92250842 98.16743269 -3.97601895 87.07886448 -4.359375 75.9765625 C-5.21238669 50.20527376 -5.20708533 25.35763288 0 0 Z " fill="#1FADF8" transform="translate(143,274)"/>
<path d="M0 0 C-0.88277171 5.47318462 -0.88277171 5.47318462 -2 8 C-5 9.125 -5 9.125 -8 10 C-9.45160938 13.01779872 -9.45160938 13.01779872 -10 16 C-12.31 16.33 -14.62 16.66 -17 17 C-17.33 19.31 -17.66 21.62 -18 24 C-21.96 24.495 -21.96 24.495 -26 25 C-25.64598897 21.81390075 -25.16972964 20.20933322 -23.125 17.6875 C-21 16 -21 16 -18 16 C-18.061875 15.236875 -18.12375 14.47375 -18.1875 13.6875 C-18 11 -18 11 -16.8125 9.1875 C-14.44017475 7.63321794 -12.77958655 7.77462812 -10 8 C-9.9175 7.4225 -9.835 6.845 -9.75 6.25 C-8.06807489 1.20422468 -5.18953708 -0.57661523 0 0 Z " fill="#2DBBF1" transform="translate(554,744)"/>
<path d="M0 0 C17.09213407 6.95533569 30.70057854 18.45848315 44 31 C44.79535156 31.74121094 45.59070313 32.48242188 46.41015625 33.24609375 C50.84753634 37.51130036 54.81416496 42.05168233 58.625 46.875 C59.07568848 47.43493652 59.52637695 47.99487305 59.99072266 48.57177734 C61.2265625 50.1796875 61.2265625 50.1796875 63 53 C62.67 53.99 62.34 54.98 62 56 C60.96939453 54.62714844 60.96939453 54.62714844 59.91796875 53.2265625 C59.00805803 52.02585556 58.0978882 50.82534495 57.1875 49.625 C56.73568359 49.02171875 56.28386719 48.4184375 55.81835938 47.796875 C53.68786722 44.99768823 51.95186035 42.9679069 49 41 C48.4121875 39.948125 48.4121875 39.948125 47.8125 38.875 C44.18659884 33.12357057 38.62709286 27.80208977 33 24 C32.113125 23.835 31.22625 23.67 30.3125 23.5 C29.549375 23.335 28.78625 23.17 28 23 C26.875 21.0625 26.875 21.0625 26 19 C25.01 18.34 24.02 17.68 23 17 C23 16.34 23 15.68 23 15 C20.525 14.505 20.525 14.505 18 14 C18 13.01 18 12.02 18 11 C14.7 10.01 11.4 9.02 8 8 C8 7.01 8 6.02 8 5 C7.236875 5.061875 6.47375 5.12375 5.6875 5.1875 C3 5 3 5 1.1875 3.625 C0 2 0 2 0 0 Z " fill="#F22E31" transform="translate(438,263)"/>
<path d="M0 0 C0.66 0 1.32 0 2 0 C1.67 4.29 1.34 8.58 1 13 C-1.31 13.66 -3.62 14.32 -6 15 C-6.33 16.98 -6.66 18.96 -7 21 C-7.94875 21.20625 -8.8975 21.4125 -9.875 21.625 C-11.421875 22.305625 -11.421875 22.305625 -13 23 C-13.72693904 24.97888961 -14.39816251 26.97954558 -15 29 C-17 30 -17 30 -19 30 C-19.66 29.34 -20.32 28.68 -21 28 C-19.824375 26.9790625 -19.824375 26.9790625 -18.625 25.9375 C-15.78141241 23.22757475 -15.78141241 23.22757475 -15.24609375 19.7734375 C-13.63644488 14.8990776 -11.00796173 12.26564841 -7.4375 8.6875 C-6.24699704 7.46389214 -5.05811373 6.23870573 -3.87109375 5.01171875 C-3.34443115 4.48022217 -2.81776855 3.94872559 -2.27514648 3.40112305 C-0.89036706 2.0067935 -0.89036706 2.0067935 0 0 Z " fill="#38BAE9" transform="translate(671,603)"/>
<path d="M0 0 C4.93573766 3.9905964 9.14444072 8.2590856 13.3359375 13.01953125 C15.35528177 15.27870966 17.39601415 17.49757731 19.4765625 19.69921875 C20.08878662 20.34769775 20.70101074 20.99617676 21.33178711 21.66430664 C22.53529737 22.93590129 23.74167347 24.20479201 24.95141602 25.47045898 C28.98634266 29.74526607 32.56649085 34.22980504 36 39 C29.25 39.125 29.25 39.125 27 38 C27 35.69 27 33.38 27 31 C25.68 31 24.36 31 23 31 C23 29.35 23 27.7 23 26 C22.195625 25.71125 21.39125 25.4225 20.5625 25.125 C18 24 18 24 17 22 C16.01 22.33 15.02 22.66 14 23 C14 21.68 14 20.36 14 19 C12.70766393 17.62689293 11.37562854 16.28965176 10 15 C10 14.34 10 13.68 10 13 C9.34 13 8.68 13 8 13 C6.64613064 11.34997172 5.31321858 9.6825613 4 8 C3.34 7.67 2.68 7.34 2 7 C0.95191959 5.02477154 -0.0520411 3.02518491 -1 1 C-0.67 0.67 -0.34 0.34 0 0 Z " fill="#24ABF4" transform="translate(453,713)"/>
<path d="M0 0 C0.5775 0.226875 1.155 0.45375 1.75 0.6875 C1.42 2.9975 1.09 5.3075 0.75 7.6875 C-1.56 8.0175 -3.87 8.3475 -6.25 8.6875 C-6.58 10.9975 -6.91 13.3075 -7.25 15.6875 C-8.85875 15.7803125 -8.85875 15.7803125 -10.5 15.875 C-15.01386128 16.85300328 -15.64288902 18.03754462 -18.25 21.6875 C-21 23.5 -21 23.5 -23.25 24.6875 C-23.61794764 21.37597126 -23.54809215 20.08140748 -21.5 17.375 C-19.25 15.6875 -19.25 15.6875 -15.25 15.6875 C-15.311875 14.924375 -15.37375 14.16125 -15.4375 13.375 C-15.25 10.6875 -15.25 10.6875 -14.0625 8.875 C-11.69017475 7.32071794 -10.02958655 7.46212812 -7.25 7.6875 C-7.1675 6.924375 -7.085 6.16125 -7 5.375 C-6.25 2.6875 -6.25 2.6875 -4.4375 0.8125 C-2.25 -0.3125 -2.25 -0.3125 0 0 Z " fill="#34B9EC" transform="translate(647.25,640.3125)"/>
<path d="M0 0 C0.3125 2.3125 0.3125 2.3125 0 5 C-1.63064764 6.05771739 -3.30280873 7.05273046 -5 8 C-5.680625 9.2375 -5.680625 9.2375 -6.375 10.5 C-8 13 -8 13 -11.625 14.5 C-12.73875 14.995 -13.8525 15.49 -15 16 C-16.05167527 18.57732914 -16.05167527 18.57732914 -16 21 C-18.97 21.33 -21.94 21.66 -25 22 C-24.34 21.67 -23.68 21.34 -23 21 C-22.75378906 20.44570313 -22.50757813 19.89140625 -22.25390625 19.3203125 C-20.41303666 15.91384354 -17.71160934 13.54203846 -14.9375 10.875 C-10.9955106 7.30446634 -10.9955106 7.30446634 -8 3 C-7.34 3.33 -6.68 3.66 -6 4 C-5.67 3.67 -5.34 3.34 -5 3 C-1.16 0 -1.16 0 0 0 Z " fill="#3CBDDF" transform="translate(536,755)"/>
<path d="M0 0 C-0.66 2.64 -1.32 5.28 -2 8 C-4.31 8.33 -6.62 8.66 -9 9 C-9.33 11.31 -9.66 13.62 -10 16 C-12.64 16.66 -15.28 17.32 -18 18 C-18.3125 15.8125 -18.3125 15.8125 -18 13 C-15.6875 10.1875 -15.6875 10.1875 -13 8 C-12.01 8 -11.02 8 -10 8 C-10.33 6.02 -10.66 4.04 -11 2 C-7.36576791 -0.32590854 -4.22911669 -0.16265833 0 0 Z " fill="#39BCE9" transform="translate(618,672)"/>
<path d="M0 0 C1.31157516 2.62315032 0.89649988 4.23033436 0.5625 7.125 C0.46066406 8.03507812 0.35882813 8.94515625 0.25390625 9.8828125 C0.17011719 10.58148438 0.08632812 11.28015625 0 12 C-0.99 11.67 -1.98 11.34 -3 11 C-3.20496094 11.69867188 -3.40992188 12.39734375 -3.62109375 13.1171875 C-3.89050781 14.02726562 -4.15992188 14.93734375 -4.4375 15.875 C-4.70433594 16.77992188 -4.97117188 17.68484375 -5.24609375 18.6171875 C-6 21 -6 21 -7 23 C-7.23029956 25.37123246 -7.41119942 27.74741943 -7.5625 30.125 C-7.64628906 31.40632813 -7.73007813 32.68765625 -7.81640625 34.0078125 C-7.87699219 34.99523437 -7.93757812 35.98265625 -8 37 C-9.98 37.495 -9.98 37.495 -12 38 C-11.59249106 30.63303354 -10.05797684 24.1970537 -7.625 17.25 C-7.32078125 16.34378906 -7.0165625 15.43757813 -6.703125 14.50390625 C-2.655713 2.655713 -2.655713 2.655713 0 0 Z " fill="#F42C2E" transform="translate(248,337)"/>
<path d="M0 0 C0.33 0 0.66 0 1 0 C1.33 15.84 1.66 31.68 2 48 C3.98 48 5.96 48 8 48 C7.06862408 49.29608947 6.1296434 50.58671632 5.1875 51.875 C4.66542969 52.59429688 4.14335938 53.31359375 3.60546875 54.0546875 C2 56 2 56 -1 58 C-1 55.20180186 -0.95941931 52.40827971 -0.90820312 49.6105957 C-0.88818237 48.50968094 -0.86816162 47.40876617 -0.84753418 46.27449036 C-0.8256604 45.08691635 -0.80378662 43.89934235 -0.78125 42.67578125 C-0.75905396 41.45924362 -0.73685791 40.24270599 -0.71398926 38.98930359 C-0.64291492 35.09703101 -0.57146172 31.20476549 -0.5 27.3125 C-0.451798 24.67643275 -0.4036206 22.04036504 -0.35546875 19.40429688 C-0.23726488 12.93619266 -0.11874981 6.46809421 0 0 Z " fill="#FEC801" transform="translate(578,648)"/>
<path d="M0 0 C3.41239451 0.57413862 4.93369598 1.60640254 7.234375 4.16015625 C8.09482422 5.1027832 8.09482422 5.1027832 8.97265625 6.06445312 C9.55917969 6.72380859 10.14570313 7.38316406 10.75 8.0625 C11.35199219 8.72572266 11.95398438 9.38894531 12.57421875 10.07226562 C14.05714651 11.70819387 15.53190257 13.35076955 17 15 C14.04335481 16.4783226 11.25770263 16.06032783 8 16 C7.67 13.36 7.34 10.72 7 8 C4.69 7.67 2.38 7.34 0 7 C0 4.69 0 2.38 0 0 Z " fill="#3CBAE3" transform="translate(488,753)"/>
<path d="M0 0 C6.97373225 4.50347287 12.21955834 10.22770765 17 17 C17 17.66 17 18.32 17 19 C20.62885324 19.15149298 20.62885324 19.15149298 24 18 C23.773125 18.556875 23.54625 19.11375 23.3125 19.6875 C22.86423569 23.00465589 24.093737 24.30493852 26 27 C27.31037934 28.68477344 28.63823078 30.35648543 30 32 C22.14969427 28.71550427 16.22757835 20.44291481 10.8046875 14.0859375 C7.86054553 10.68296821 4.78200361 7.40095882 1.72265625 4.1015625 C0 2 0 2 0 0 Z " fill="#F32B2B" transform="translate(432,688)"/>
<path d="M0 0 C0.66 0 1.32 0 2 0 C2 1.98 2 3.96 2 6 C1.05125 6.20625 0.1025 6.4125 -0.875 6.625 C-2.421875 7.305625 -2.421875 7.305625 -4 8 C-4.33 8.99 -4.66 9.98 -5 11 C-5.33 11.99 -5.66 12.98 -6 14 C-9 15.3125 -9 15.3125 -12 16 C-12.66 16.33 -13.32 16.66 -14 17 C-13.43176154 13.02233079 -12.50554193 10.17368645 -10 7 C-7.68191636 5.96514123 -5.34824702 4.9644586 -3 4 C-1.21655822 1.93045153 -1.21655822 1.93045153 0 0 Z " fill="#3EBDE3" transform="translate(598,690)"/>
<path d="M0 0 C0.66 0 1.32 0 2 0 C1.67 4.29 1.34 8.58 1 13 C-1.64 13.66 -4.28 14.32 -7 15 C-7.73828125 12.83203125 -7.73828125 12.83203125 -8 10 C-6.41796875 7.32421875 -6.41796875 7.32421875 -4.1875 4.6875 C-3.45917969 3.80449219 -2.73085938 2.92148437 -1.98046875 2.01171875 C-1.32691406 1.34785156 -0.67335938 0.68398438 0 0 Z " fill="#2CB7F0" transform="translate(671,603)"/>
<path d="M0 0 C0 3.80229459 -1.15571761 6.73257057 -3 10 C-3.845625 10.825 -4.69125 11.65 -5.5625 12.5 C-8.30659808 14.88604621 -8.30659808 14.88604621 -8.875 18.6875 C-9.24625 19.780625 -9.6175 20.87375 -10 22 C-13.625 23.4375 -13.625 23.4375 -17 24 C-15.38744333 18.89190122 -12.27487217 15.06903644 -9.0625 10.875 C-8.52431641 10.15957031 -7.98613281 9.44414062 -7.43164062 8.70703125 C-5.09076861 5.61858112 -2.79540102 2.69370315 0 0 Z " fill="#F73335" transform="translate(530,306)"/>
<path d="M0 0 C0.99 0.33 1.98 0.66 3 1 C3 1.66 3 2.32 3 3 C3.66 3 4.32 3 5 3 C5 3.66 5 4.32 5 5 C5.66 5 6.32 5 7 5 C7 5.66 7 6.32 7 7 C7.66 7 8.32 7 9 7 C10.296875 8.64453125 10.296875 8.64453125 11.75 10.8125 C14.43400867 14.56483645 16.79885519 16.04597916 21 18 C21.625 19.9375 21.625 19.9375 22 22 C23.97901574 24.22977996 23.97901574 24.22977996 26 26 C25.67 26.66 25.34 27.32 25 28 C10.55606847 13.7363672 10.55606847 13.7363672 5.33203125 7.546875 C3.87356449 5.80762028 3.87356449 5.80762028 1.5625 3.625 C0 2 0 2 0 0 Z " fill="#F32F2C" transform="translate(358,608)"/>
<path d="M0 0 C3.95464266 1.60247368 6.6740117 4.3291199 9.625 7.3125 C10.14408936 7.83577881 10.66317871 8.35905762 11.19799805 8.89819336 C14.96622322 12.7743281 18.4720312 16.81302317 21.8125 21.0625 C22.25094238 21.61010986 22.68938477 22.15771973 23.14111328 22.72192383 C24.33203125 24.28515625 24.33203125 24.28515625 26 27 C25.67 27.99 25.34 28.98 25 30 C24.31292969 29.08476562 23.62585938 28.16953125 22.91796875 27.2265625 C22.00805803 26.02585556 21.0978882 24.82534495 20.1875 23.625 C19.73568359 23.02171875 19.28386719 22.4184375 18.81835938 21.796875 C16.68786722 18.99768823 14.95186035 16.9679069 12 15 C11.53980469 14.23171875 11.07960938 13.4634375 10.60546875 12.671875 C8.82539597 9.70941811 6.80147936 7.6387789 4.3125 5.25 C2.85896801 3.84978736 1.4166885 2.43747848 0 1 C0 0.67 0 0.34 0 0 Z " fill="#F32525" transform="translate(475,289)"/>
<path d="M0 0 C0.33 0.66 0.66 1.32 1 2 C-0.38700273 4.77400546 -2.34261714 5.42972831 -5 7 C-5.763125 7.639375 -6.52625 8.27875 -7.3125 8.9375 C-10.83033023 11.63723018 -15.41603806 15 -20 15 C-20 14.34 -20 13.68 -20 13 C-18.59472656 11.79492188 -18.59472656 11.79492188 -16.640625 10.46875 C-15.93679688 9.98792969 -15.23296875 9.50710938 -14.5078125 9.01171875 C-13.76273437 8.51285156 -13.01765625 8.01398438 -12.25 7.5 C-11.52039063 7.00113281 -10.79078125 6.50226563 -10.0390625 5.98828125 C-6.76544325 3.76817219 -3.57277368 1.71191268 0 0 Z " fill="#F33132" transform="translate(311,267)"/>
<path d="M0 0 C1.53445094 3.06890187 0.54984289 5.70094266 0 9 C-2.64 9.33 -5.28 9.66 -8 10 C-8.36305732 4.55414013 -8.36305732 4.55414013 -6.8125 2.1875 C-4.57968261 0.72461964 -2.62655933 0.35494045 0 0 Z " fill="#29B9F3" transform="translate(592,703)"/>
<path d="M0 0 C3.00421074 1.33810581 4.99964914 2.78362258 7.234375 5.1875 C8.09482422 6.11175781 8.09482422 6.11175781 8.97265625 7.0546875 C9.55917969 7.69664062 10.14570313 8.33859375 10.75 9 C11.35199219 9.64195312 11.95398438 10.28390625 12.57421875 10.9453125 C17 15.7424178 17 15.7424178 17 18 C17.99 18.33 18.98 18.66 20 19 C21.84499398 20.87617698 23.3683599 22.92737609 25 25 C24.67 25.66 24.34 26.32 24 27 C19.07026915 22.1708759 14.26550844 17.29934318 9.7734375 12.05859375 C7.06980962 8.92024156 4.28157187 5.85798178 1.50390625 2.78515625 C0 1 0 1 0 0 Z " fill="#EE3231" transform="translate(303,549)"/>
<path d="M0 0 C0.66 0 1.32 0 2 0 C2.2475 0.639375 2.495 1.27875 2.75 1.9375 C3.1625 2.618125 3.575 3.29875 4 4 C4.65484375 4.12117188 5.3096875 4.24234375 5.984375 4.3671875 C6.98210937 4.68042969 6.98210937 4.68042969 8 5 C8.90625 6.85546875 8.90625 6.85546875 9.5 9.1875 C10.39478762 12.29701055 11.29779888 14.74267949 13.1875 17.375 C15 20 15 20 15 23 C0 7.484375 0 7.484375 0 0 Z " fill="#F52D2E" transform="translate(256,491)"/>
<path d="M0 0 C0 1.65 0 3.3 0 5 C-0.99 5 -1.98 5 -3 5 C-3.268125 5.639375 -3.53625 6.27875 -3.8125 6.9375 C-5 9 -5 9 -8 10 C-8 10.99 -8 11.98 -8 13 C-9.32 13 -10.64 13 -12 13 C-10.66182195 9.02031425 -8.99662286 6.61251238 -6 3.6875 C-5.29875 2.99011719 -4.5975 2.29273438 -3.875 1.57421875 C-2 0 -2 0 0 0 Z " fill="#48B7CF" transform="translate(608,675)"/>
<path d="M0 0 C0.8353125 0.37125 0.8353125 0.37125 1.6875 0.75 C1.3575 3.06 1.0275 5.37 0.6875 7.75 C-1.9525 8.08 -4.5925 8.41 -7.3125 8.75 C-7.625 6.5 -7.625 6.5 -7.3125 3.75 C-3.41056452 -0.36870968 -3.41056452 -0.36870968 0 0 Z " fill="#2BB8F3" transform="translate(647.3125,640.25)"/>
<path d="M0 0 C0 0.99 0 1.98 0 3 C0.66 3.33 1.32 3.66 2 4 C2.33 3.34 2.66 2.68 3 2 C3.99 2.99 4.98 3.98 6 5 C4.61423347 7.77153305 2.65868859 8.48074938 0 10 C-0.99 10.66 -1.98 11.32 -3 12 C-3.08131463 10.56344146 -3.13933559 9.1255517 -3.1875 7.6875 C-3.22230469 6.88699219 -3.25710938 6.08648438 -3.29296875 5.26171875 C-2.93801608 2.52148416 -2.10633718 1.70828921 0 0 Z " fill="#3ABDE1" transform="translate(571,713)"/>
<path d="M0 0 C0.66 0 1.32 0 2 0 C2.33 4.95 2.66 9.9 3 15 C3.33 15 3.66 15 4 15 C4 18.96 4 22.92 4 27 C3.01 27 2.02 27 1 27 C0.67 18.09 0.34 9.18 0 0 Z " fill="#1DADF8" transform="translate(138,528)"/>
<path d="M0 0 C7.72257587 0.53878436 15.11420559 3.55710279 22 7 C22 7.66 22 8.32 22 9 C16.375 9.25 16.375 9.25 13 7 C12.34 6.67 11.68 6.34 11 6 C11 5.34 11 4.68 11 4 C7.37 3.01 3.74 2.02 0 1 C0 0.67 0 0.34 0 0 Z " fill="#F32B2E" transform="translate(415,255)"/>
<path d="M0 0 C0.33 0.99 0.66 1.98 1 3 C1.66 3.33 2.32 3.66 3 4 C3.4921875 5.71484375 3.4921875 5.71484375 3.875 7.9375 C4.93313735 13.24525349 6.86774739 18.04199515 9 23 C8.34 23 7.68 23 7 23 C5.62362255 20.11422066 4.27801751 17.21508967 2.9375 14.3125 C2.54755859 13.49587891 2.15761719 12.67925781 1.75585938 11.83789062 C-1.05682797 5.68980413 -1.05682797 5.68980413 -0.74609375 1.91796875 C-0.49988281 1.28503906 -0.25367188 0.65210938 0 0 Z " fill="#F52C2C" transform="translate(242,458)"/>
<path d="M0 0 C0.33 1.65 0.66 3.3 1 5 C-2.96 6.98 -2.96 6.98 -7 9 C-7.33 7.35 -7.66 5.7 -8 4 C-3.375 0 -3.375 0 0 0 Z " fill="#41BADE" transform="translate(647,635)"/>
<path d="M0 0 C-0.39143023 2.27029534 -0.88741278 3.83408198 -2.1875 5.75 C-4.78687216 7.54267046 -6.92339216 7.20510719 -10 7 C-10.33 7.99 -10.66 8.98 -11 10 C-11.66 9.67 -12.32 9.34 -13 9 C-11.73809862 5.21429586 -10.45144185 4.78168429 -7.0625 2.8125 C-6.16660156 2.28269531 -5.27070312 1.75289063 -4.34765625 1.20703125 C-2 0 -2 0 0 0 Z " fill="#F72E32" transform="translate(580,265)"/>
<path d="M0 0 C2.66691041 0.37521467 3.78233611 0.76306921 5.6328125 2.77734375 C6.37144531 3.84662109 6.37144531 3.84662109 7.125 4.9375 C10.54726168 9.89868812 10.54726168 9.89868812 16 12 C15.67 13.32 15.34 14.64 15 16 C9.75715884 11.6309657 4.48058696 7.16722236 0 2 C0 1.34 0 0.68 0 0 Z " fill="#F03036" transform="translate(384,636)"/>
<path d="M0 0 C1.9375 0.8125 1.9375 0.8125 4 2 C4.33 2.99 4.66 3.98 5 5 C1.66666667 8.33333333 -1.66666667 11.66666667 -5 15 C-4.67 13.35 -4.34 11.7 -4 10 C-3.34 10 -2.68 10 -2 10 C-2 9.34 -2 8.68 -2 8 C-1.34 8 -0.68 8 0 8 C0 5.36 0 2.72 0 0 Z " fill="#F4BC0F" transform="translate(600,672)"/>
<path d="M0 0 C3 0 3 0 5.625 2.375 C8 5 8 5 9 7 C2.25 7.125 2.25 7.125 0 6 C0 4.02 0 2.04 0 0 Z " fill="#30B6EF" transform="translate(480,745)"/>
<path d="M0 0 C0.33 0 0.66 0 1 0 C2.10228696 4.40914783 2.07654536 8.48382401 2 13 C0.8274869 12.04882866 -0.33787015 11.08882991 -1.5 10.125 C-2.1496875 9.59132813 -2.799375 9.05765625 -3.46875 8.5078125 C-3.9740625 8.01023437 -4.479375 7.51265625 -5 7 C-5 6.34 -5 5.68 -5 5 C-3.68 5 -2.36 5 -1 5 C-0.67 3.35 -0.34 1.7 0 0 Z " fill="#F1393E" transform="translate(481,731)"/>
<path d="M0 0 C7.93396732 -0.24923458 15.2441657 0.29005228 23 2 C23 2.66 23 3.32 23 4 C22.0925 3.835 21.185 3.67 20.25 3.5 C14.86217525 2.71126689 9.43087444 2.91974077 4 3 C4 2.34 4 1.68 4 1 C2.68 0.67 1.36 0.34 0 0 Z " fill="#F72B29" transform="translate(383,250)"/>
<path d="M0 0 C0.3125 2.3125 0.3125 2.3125 0 5 C-1.63064764 6.05771739 -3.30280873 7.05273046 -5 8 C-6.80796103 10.56610666 -6.80796103 10.56610666 -8 13 C-8.66 12.67 -9.32 12.34 -10 12 C-9.44520943 8.15114044 -7.75581685 6.40739482 -5 3.75 C-4.278125 3.04359375 -3.55625 2.3371875 -2.8125 1.609375 C-1 0 -1 0 0 0 Z " fill="#52B7C1" transform="translate(592,691)"/>
<path d="M0 0 C1.24546405 2.49092811 0.7767578 3.41080733 0 6 C-0.99 6 -1.98 6 -3 6 C-3.2475 6.845625 -3.495 7.69125 -3.75 8.5625 C-5.13973627 12.38427474 -6.91120838 15.51868063 -9 19 C-9.66 18.67 -10.32 18.34 -11 18 C-7.68039239 11.69160479 -4.30074004 5.69215594 0 0 Z " fill="#F52725" transform="translate(261,314)"/>
<path d="M0 0 C3.63559661 3.43361902 6.36113346 6.7973607 9 11 C9.66 10.67 10.32 10.34 11 10 C10.67 11.32 10.34 12.64 10 14 C9.01 13.67 8.02 13.34 7 13 C5.8125 10.4375 5.8125 10.4375 5 8 C4.01 8 3.02 8 2 8 C1.34 5.36 0.68 2.72 0 0 Z " fill="#EE2B31" transform="translate(502,320)"/>
<path d="M0 0 C0 2.31 0 4.62 0 7 C-2.31 7.66 -4.62 8.32 -7 9 C-7 6 -7 6 -5.72265625 4.39453125 C-5.17480469 3.87246094 -4.62695312 3.35039063 -4.0625 2.8125 C-3.51722656 2.28269531 -2.97195313 1.75289062 -2.41015625 1.20703125 C-1 0 -1 0 0 0 Z " fill="#58B8C3" transform="translate(616,665)"/>
<path d="M0 0 C0 2.64 0 5.28 0 8 C-1.98 8.33 -3.96 8.66 -6 9 C-3.4 0 -3.4 0 0 0 Z " fill="#4EBBC3" transform="translate(576,708)"/>
<path d="M0 0 C2 3 2 3 1.625 5.1875 C1.41875 5.785625 1.2125 6.38375 1 7 C-0.98 7.33 -2.96 7.66 -5 8 C-5 5 -5 5 -2.5 2.3125 C-1.675 1.549375 -0.85 0.78625 0 0 Z " fill="#41B9D2" transform="translate(582,701)"/>
<path d="M0 0 C0 3.16880694 -0.2058242 4.43689172 -2 7 C-4.375 7.625 -4.375 7.625 -7 8 C-9.23408113 8.99083967 -9.23408113 8.99083967 -11 10 C-7.65996398 5.67760044 -4.67248931 2.82522609 0 0 Z " fill="#F42B2B" transform="translate(565,273)"/>
<path d="M0 0 C0.5775 0.495 1.155 0.99 1.75 1.5 C4.10400629 3.36980013 4.10400629 3.36980013 8 3 C8.66 5.31 9.32 7.62 10 10 C7 10 7 10 5.17578125 8.3203125 C4.56089844 7.59585938 3.94601562 6.87140625 3.3125 6.125 C2.68988281 5.40570312 2.06726563 4.68640625 1.42578125 3.9453125 C0 2 0 2 0 0 Z " fill="#F32E30" transform="translate(422,677)"/>
<path d="M0 0 C0.66 0 1.32 0 2 0 C3.01866229 1.65532623 4.01810813 3.32260138 5 5 C5.66 5.33 6.32 5.66 7 6 C9.0095568 8.93704456 10 10.39222485 10 14 C8.32401988 12.23722805 6.65940764 10.46575711 5 8.6875 C4.52304687 8.18798828 4.04609375 7.68847656 3.5546875 7.17382812 C0 3.33984375 0 3.33984375 0 0 Z " fill="#F62C29" transform="translate(273,514)"/>
<path d="M0 0 C0.33 1.32 0.66 2.64 1 4 C-0.875 6.125 -0.875 6.125 -3 8 C-3.33 8.66 -3.66 9.32 -4 10 C-4.66 10 -5.32 10 -6 10 C-6.33 9.01 -6.66 8.02 -7 7 C-4.69 4.69 -2.38 2.38 0 0 Z " fill="#4EBDC4" transform="translate(551,734)"/>
<path d="M0 0 C0 2.64 0 5.28 0 8 C-1.65 8 -3.3 8 -5 8 C-3.91891892 0 -3.91891892 0 0 0 Z " fill="#57B7C7" transform="translate(624,656)"/>
<path d="M0 0 C-1.2419607 3.43927579 -2.55740284 6.25207819 -5 9 C-5.66 9 -6.32 9 -7 9 C-7.33 8.01 -7.66 7.02 -8 6 C-7.0479279 4.99403703 -6.08812654 3.99538437 -5.125 3 C-4.59132813 2.443125 -4.05765625 1.88625 -3.5078125 1.3125 C-2 0 -2 0 0 0 Z " fill="#3EB2D6" transform="translate(664,614)"/>
<path d="M0 0 C0.33 0 0.66 0 1 0 C1.36552803 1.41377782 1.71695495 2.83120576 2.0625 4.25 C2.25972656 5.03890625 2.45695313 5.8278125 2.66015625 6.640625 C3.24295251 10.68670481 2.25674897 12.61487655 0 16 C0 10.72 0 5.44 0 0 Z " fill="#1EACF7" transform="translate(139,391)"/>
<path d="M0 0 C4.875 4.75 4.875 4.75 6 7 C4.02 7 2.04 7 0 7 C-0.93423645 3.98968256 -1.04449911 3.13349732 0 0 Z " fill="#3BBAE3" transform="translate(505,769)"/>
<path d="M0 0 C0.66 0 1.32 0 2 0 C1.64947365 3.15473719 1.13480924 4.8233534 -0.8125 7.375 C-1.534375 7.91125 -2.25625 8.4475 -3 9 C-5.13671875 8.6015625 -5.13671875 8.6015625 -7 8 C-5.88200014 6.66079162 -4.75538103 5.32877444 -3.625 4 C-2.68527344 2.88625 -2.68527344 2.88625 -1.7265625 1.75 C-1.15679688 1.1725 -0.58703125 0.595 0 0 Z " fill="#34B2DC" transform="translate(671,603)"/>
<path d="M0 0 C1.31157516 2.62315032 0.89649988 4.23033436 0.5625 7.125 C0.46066406 8.03507812 0.35882813 8.94515625 0.25390625 9.8828125 C0.17011719 10.58148438 0.08632812 11.28015625 0 12 C-0.99 11.34 -1.98 10.68 -3 10 C-2.67 9.34 -2.34 8.68 -2 8 C-2.66 7.67 -3.32 7.34 -4 7 C-1.125 1.125 -1.125 1.125 0 0 Z " fill="#F62F36" transform="translate(248,337)"/>
<path d="M0 0 C-0.639375 0.268125 -1.27875 0.53625 -1.9375 0.8125 C-4.33131686 1.88667752 -4.33131686 1.88667752 -5 5 C-7.97 4.505 -7.97 4.505 -11 4 C-11 3.34 -11 2.68 -11 2 C-9.73392393 1.46770674 -8.46189588 0.94955456 -7.1875 0.4375 C-6.47980469 0.14746094 -5.77210938 -0.14257812 -5.04296875 -0.44140625 C-3 -1 -3 -1 0 0 Z " fill="#F22F34" transform="translate(597,259)"/>
<path d="M0 0 C1.66666667 0 3.33333333 0 5 0 C5 1.65 5 3.3 5 5 C3.35 5.66 1.7 6.32 0 7 C0 4.69 0 2.38 0 0 Z " fill="#FB3338" transform="translate(235,434)"/>
<path d="M0 0 C0.33 0 0.66 0 1 0 C1.19406478 1.64507218 1.38007935 3.29109594 1.5625 4.9375 C1.66691406 5.85402344 1.77132812 6.77054687 1.87890625 7.71484375 C1.91886719 8.46894531 1.95882812 9.22304688 2 10 C1.67 10.33 1.34 10.66 1 11 C0.63239269 13.32817964 0.29758419 15.6618385 0 18 C-0.33 18 -0.66 18 -1 18 C-1.02717692 15.93757383 -1.0464758 13.87504297 -1.0625 11.8125 C-1.07410156 10.66394531 -1.08570313 9.51539063 -1.09765625 8.33203125 C-1.01192832 5.40699414 -0.67849023 2.83683709 0 0 Z " fill="#FB2520" transform="translate(234,382)"/>
<path d="M0 0 C-3.465 2.97 -3.465 2.97 -7 6 C-7.33 4.35 -7.66 2.7 -8 1 C-4.59449725 -1.06762667 -4.18836538 -1.04709135 0 0 Z " fill="#42B9DD" transform="translate(615,673)"/>
<path d="M0 0 C0.33 0 0.66 0 1 0 C1.25 2.8125 1.25 2.8125 1 6 C-1 7.875 -1 7.875 -3 9 C-3.66 8.67 -4.32 8.34 -5 8 C-1.125 1.125 -1.125 1.125 0 0 Z " fill="#52BFC0" transform="translate(543,742)"/>
<path d="M0 0 C0.66 0 1.32 0 2 0 C1.45773019 3.79588866 -0.20127563 5.47211993 -3 8 C-3.66 7.67 -4.32 7.34 -5 7 C-3.47793991 4.37098712 -2.15634036 2.15634036 0 0 Z " fill="#45BDD0" transform="translate(558,727)"/>
<path d="M0 0 C1.14926266 0.95421808 2.29430541 1.91352045 3.4375 2.875 C4.07558594 3.40867187 4.71367187 3.94234375 5.37109375 4.4921875 C7 6 7 6 8 8 C6.35 7.67 4.7 7.34 3 7 C3 6.34 3 5.68 3 5 C2.34 5 1.68 5 1 5 C0.34 3.68 -0.32 2.36 -1 1 C-0.67 0.67 -0.34 0.34 0 0 Z " fill="#1EADF8" transform="translate(460,721)"/>
<path d="M0 0 C0 3.99282941 -1.47808076 5.15331592 -4 8.1875 C-4.7425 9.08855469 -5.485 9.98960937 -6.25 10.91796875 C-6.8275 11.60503906 -7.405 12.29210937 -8 13 C-8 9.4384838 -7.26790571 8.68021425 -5.125 5.9375 C-4.59132813 5.24527344 -4.05765625 4.55304688 -3.5078125 3.83984375 C-2 2 -2 2 0 0 Z " fill="#F52524" transform="translate(530,306)"/>
<path d="M0 0 C0 1.98 0 3.96 0 6 C-1.98 6 -3.96 6 -6 6 C-5.1875 3.5625 -5.1875 3.5625 -4 1 C-1 0 -1 0 0 0 Z " fill="#49C2DE" transform="translate(528,762)"/>
<path d="M0 0 C0.556875 0.721875 1.11375 1.44375 1.6875 2.1875 C3.97909334 4.97457299 6.41459857 7.48641528 9 10 C8.67 10.66 8.34 11.32 8 12 C5.03 9.03 2.06 6.06 -1 3 C-0.67 2.01 -0.34 1.02 0 0 Z " fill="#F22B31" transform="translate(464,721)"/>
<path d="M0 0 C0.99 0 1.98 0 3 0 C1.60667426 3.36720387 0.0210714 4.9859524 -3 7 C-2.25 2.25 -2.25 2.25 0 0 Z " fill="#F1D516" transform="translate(523,760)"/>
<path d="M0 0 C0.99 0 1.98 0 3 0 C2.60196439 2.88575819 2.20990931 3.82189513 -0.0625 5.75 C-0.701875 6.1625 -1.34125 6.575 -2 7 C-2 3.89448334 -1.4606285 2.64738916 0 0 Z " fill="#F1C711" transform="translate(579,699)"/>
<path d="M0 0 C2.89932357 2.39509338 3.50168276 4.31245243 4 8 C3.34 8 2.68 8 2 8 C2 7.34 2 6.68 2 6 C1.01 5.67 0.02 5.34 -1 5 C-0.67 3.35 -0.34 1.7 0 0 Z " fill="#1CB4F2" transform="translate(241,464)"/>
<path d="M0 0 C0.33 1.32 0.66 2.64 1 4 C0.01 4.33 -0.98 4.66 -2 5 C-2 5.66 -2 6.32 -2 7 C-3.32 6.67 -4.64 6.34 -6 6 C-4.02 4.02 -2.04 2.04 0 0 Z " fill="#E33B45" transform="translate(542,292)"/>
<path d="M0 0 C-0.99 1.485 -0.99 1.485 -2 3 C-5 3.3125 -5 3.3125 -8 3 C-8.66 2.34 -9.32 1.68 -10 1 C-6.61981469 -0.04005702 -3.5219721 -0.08004482 0 0 Z " fill="#EB323A" transform="translate(615,253)"/>
<path d="M0 0 C0 1.98 0 3.96 0 6 C-1.9375 5.1875 -1.9375 5.1875 -4 4 C-4.33 3.01 -4.66 2.02 -5 1 C-1.125 0 -1.125 0 0 0 Z " fill="#E9D321" transform="translate(513,770)"/>
<path d="M0 0 C0.66 1.32 1.32 2.64 2 4 C0.35 5.32 -1.3 6.64 -3 8 C-3.36923077 3.44615385 -3.36923077 3.44615385 -1.5 1.1875 C-1.005 0.795625 -0.51 0.40375 0 0 Z " fill="#43B6DA" transform="translate(619,661)"/>
<path d="M0 0 C0.99 0.33 1.98 0.66 3 1 C-0.465 3.97 -0.465 3.97 -4 7 C-3.6875 4.625 -3.6875 4.625 -3 2 C-2.01 1.34 -1.02 0.68 0 0 Z " fill="#E6B827" transform="translate(628,648)"/>
<path d="M0 0 C0.86625 0.7115625 0.86625 0.7115625 1.75 1.4375 C3.92582084 2.9484867 5.42602448 3.54036151 8 4 C7.67 5.32 7.34 6.64 7 8 C5.8274869 7.04882866 4.66212985 6.08882991 3.5 5.125 C2.8503125 4.59132813 2.200625 4.05765625 1.53125 3.5078125 C1.0259375 3.01023437 0.520625 2.51265625 0 2 C0 1.34 0 0.68 0 0 Z " fill="#FE2826" transform="translate(392,644)"/>
<path d="M0 0 C1.32 1.32 2.64 2.64 4 4 C1.525 5.485 1.525 5.485 -1 7 C-1.625 4.625 -1.625 4.625 -2 2 C-1.34 1.34 -0.68 0.68 0 0 Z " fill="#3BB4E3" transform="translate(641,637)"/>
<path d="M0 0 C1.33332095 2.6666419 0.67102033 4.16680303 0 7 C-1.32 7 -2.64 7 -4 7 C-2.92598892 4.08482708 -2.22189824 2.22189824 0 0 Z " fill="#56B8BB" transform="translate(600,681)"/>
<path d="M0 0 C0.33 0 0.66 0 1 0 C1 2.31 1 4.62 1 7 C-0.65 7 -2.3 7 -4 7 C-3.67 6.01 -3.34 5.02 -3 4 C-2.34 4 -1.68 4 -1 4 C-0.67 2.68 -0.34 1.36 0 0 Z " fill="#33BBF2" transform="translate(623,665)"/>
<path d="M0 0 C0 1.65 0 3.3 0 5 C-2.49064888 5.68707555 -4.37886292 6 -7 6 C-6.02388578 4.99702025 -5.04402202 3.99768827 -4.0625 3 C-3.51722656 2.443125 -2.97195313 1.88625 -2.41015625 1.3125 C-1 0 -1 0 0 0 Z " fill="#4EBCC4" transform="translate(568,717)"/>
<path d="M0 0 C0.99 0.66 1.98 1.32 3 2 C-2.625 6 -2.625 6 -6 6 C-4.02 4.02 -2.04 2.04 0 0 Z " fill="#3CB4DD" transform="translate(632,647)"/>
<path d="M0 0 C0.99 0.33 1.98 0.66 3 1 C3 1.66 3 2.32 3 3 C3.66 3 4.32 3 5 3 C5 3.66 5 4.32 5 5 C5.66 5 6.32 5 7 5 C6.67 5.99 6.34 6.98 6 8 C4.99403703 7.0479279 3.99538437 6.08812654 3 5.125 C2.443125 4.59132813 1.88625 4.05765625 1.3125 3.5078125 C0 2 0 2 0 0 Z " fill="#EB3133" transform="translate(358,608)"/>
<path d="M0 0 C0.33 0 0.66 0 1 0 C1 1.65 1 3.3 1 5 C2.32 4.34 3.64 3.68 5 3 C3.63016497 6.16115776 3.0109362 6.9927092 0 9 C0 6.03 0 3.06 0 0 Z " fill="#09C9D1" transform="translate(674,592)"/>
<path d="M0 0 C0.33 1.65 0.66 3.3 1 5 C0.01 5 -0.98 5 -2 5 C-3.6875 3 -3.6875 3 -5 1 C-3 0 -3 0 0 0 Z " fill="#E43E46" transform="translate(334,577)"/>
<path d="M0 0 C0.6875 1.8125 0.6875 1.8125 1 4 C-0.4375 5.75 -0.4375 5.75 -2 7 C-2.66 6.67 -3.32 6.34 -4 6 C-2.84826645 3.53199953 -1.95216435 1.95216435 0 0 Z " fill="#33BADD" transform="translate(523,764)"/>
<path d="M0 0 C3 0 3 0 6 2 C6 2.99 6 3.98 6 5 C4.02 4.34 2.04 3.68 0 3 C0 2.01 0 1.02 0 0 Z " fill="#40B2E5" transform="translate(480,745)"/>
<path d="M0 0 C0.33 0.66 0.66 1.32 1 2 C3.02463255 2.65213292 3.02463255 2.65213292 5 3 C3.35 4.32 1.7 5.64 0 7 C0 4.69 0 2.38 0 0 Z " fill="#3ABBE4" transform="translate(544,742)"/>
<path d="M0 0 C3.465 1.98 3.465 1.98 7 4 C6.67 4.99 6.34 5.98 6 7 C1.2 4.53846154 1.2 4.53846154 0.1875 1.8125 C0.125625 1.214375 0.06375 0.61625 0 0 Z " fill="#2AABF1" transform="translate(476,740)"/>
<path d="M0 0 C0.66 0 1.32 0 2 0 C2 3.3 2 6.6 2 10 C1.67 10 1.34 10 1 10 C0.87625 9.21625 0.7525 8.4325 0.625 7.625 C0.20882007 4.85942178 0.20882007 4.85942178 -2 3 C-1.34 3 -0.68 3 0 3 C0 2.01 0 1.02 0 0 Z " fill="#22B0F9" transform="translate(142,741)"/>
<path d="M0 0 C0.99 0 1.98 0 3 0 C1.60667426 3.36720387 0.0210714 4.9859524 -3 7 C-3 6.01 -3 5.02 -3 4 C-2.34 4 -1.68 4 -1 4 C-0.67 2.68 -0.34 1.36 0 0 Z " fill="#E7D51E" transform="translate(568,712)"/>
<path d="M0 0 C0 3 0 3 -1.5 4.6875 C-1.995 5.120625 -2.49 5.55375 -3 6 C-3.99 4.68 -4.98 3.36 -6 2 C-4.02 1.34 -2.04 0.68 0 0 Z " fill="#EE3C3D" transform="translate(455,706)"/>
<path d="M0 0 C2.31 0 4.62 0 7 0 C5.68 1.32 4.36 2.64 3 4 C2.01 3.67 1.02 3.34 0 3 C0 2.01 0 1.02 0 0 Z " fill="#FBC30A" transform="translate(579,696)"/>
<path d="M0 0 C0.33 0 0.66 0 1 0 C1 1.65 1 3.3 1 5 C-0.98 5.99 -0.98 5.99 -3 7 C-2.25 2.25 -2.25 2.25 0 0 Z " fill="#53B3C5" transform="translate(655,621)"/>
<path d="M0 0 C0.66 1.32 1.32 2.64 2 4 C1.34 3.67 0.68 3.34 0 3 C0 2.01 0 1.02 0 0 Z " fill="#20A9F1" transform="translate(154,787)"/>
<path d="M0 0 C3 1 3 1 3 1 Z " fill="#1CABF7" transform="translate(624,879)"/>
<path d="M0 0 C3 1 3 1 3 1 Z " fill="#1CABF6" transform="translate(600,879)"/>
<path d="M0 0 C3 1 3 1 3 1 Z " fill="#1DAAF6" transform="translate(424,879)"/>
<path d="M0 0 C0.33 0.66 0.66 1.32 1 2 C0.34 1.67 -0.32 1.34 -1 1 C-0.67 0.67 -0.34 0.34 0 0 Z " fill="#18A8F5" transform="translate(791,160)"/>
<path d="M0 0 C3 1 3 1 3 1 Z " fill="#1BACF4" transform="translate(256,152)"/>
<path d="M0 0 C3 1 3 1 3 1 Z " fill="#1CAAF4" transform="translate(751,149)"/>
<path d="" fill="#1EABF3" transform="translate(0,0)"/>
<path d="" fill="#1FABF5" transform="translate(0,0)"/>
<path d="M0 0 C2 1 2 1 2 1 Z " fill="#1BA9F6" transform="translate(656,879)"/>
<path d="M0 0 C2 1 2 1 2 1 Z " fill="#1CAAF6" transform="translate(648,879)"/>
<path d="" fill="#1DADF7" transform="translate(0,0)"/>
<path d="M0 0 C2 1 2 1 2 1 Z " fill="#1EABF6" transform="translate(616,879)"/>
<path d="M0 0 C2 1 2 1 2 1 Z " fill="#1BAAF6" transform="translate(608,879)"/>
<path d="M0 0 C2 1 2 1 2 1 Z " fill="#1DACF7" transform="translate(604,879)"/>
<path d="M0 0 C2 1 2 1 2 1 Z " fill="#1DACF6" transform="translate(596,879)"/>
<path d="M0 0 C2 1 2 1 2 1 Z " fill="#1BACF6" transform="translate(593,879)"/>
<path d="M0 0 C2 1 2 1 2 1 Z " fill="#1BA9F5" transform="translate(512,879)"/>
<path d="M0 0 C2 1 2 1 2 1 Z " fill="#1CACF6" transform="translate(416,879)"/>
<path d="M0 0 C2 1 2 1 2 1 Z " fill="#1CABF5" transform="translate(336,879)"/>
<path d="M0 0 C2 1 2 1 2 1 Z " fill="#1EA9F2" transform="translate(277,875)"/>
<path d="M0 0 C2 1 2 1 2 1 Z " fill="#20A9F3" transform="translate(274,875)"/>
<path d="" fill="#1CA9F1" transform="translate(0,0)"/>
<path d="M0 0 C2 1 2 1 2 1 Z " fill="#21A8EE" transform="translate(161,803)"/>
<path d="" fill="#1DA6EE" transform="translate(0,0)"/>
<path d="" fill="#1EA7F1" transform="translate(0,0)"/>
<path d="" fill="#1EABF4" transform="translate(0,0)"/>
<path d="M0 0 C2 1 2 1 2 1 Z " fill="#22AEF5" transform="translate(884,399)"/>
<path d="" fill="#21ACF6" transform="translate(0,0)"/>
<path d="" fill="#20ABF3" transform="translate(0,0)"/>
<path d="" fill="#22A9EF" transform="translate(0,0)"/>
<path d="" fill="#1FA8F1" transform="translate(0,0)"/>
<path d="" fill="#1DA8F3" transform="translate(0,0)"/>
<path d="" fill="#1CAAF3" transform="translate(0,0)"/>
<path d="M0 0 C2 1 2 1 2 1 Z " fill="#1EAAF1" transform="translate(206,176)"/>
<path d="M0 0 C2 1 2 1 2 1 Z " fill="#1FA8F1" transform="translate(203,176)"/>
<path d="" fill="#102631" transform="translate(0,0)"/>
<path d="" fill="#0F2934" transform="translate(0,0)"/>
<path d="" fill="#102B37" transform="translate(0,0)"/>
<path d="" fill="#010707" transform="translate(0,0)"/>
<path d="" fill="#1DACF3" transform="translate(0,0)"/>
<path d="" fill="#1FA9F5" transform="translate(0,0)"/>
<path d="" fill="#21A8F3" transform="translate(0,0)"/>
<path d="" fill="#1EADF5" transform="translate(0,0)"/>
<path d="" fill="#1DABF4" transform="translate(0,0)"/>
<path d="" fill="#1EABF5" transform="translate(0,0)"/>
<path d="" fill="#1DACF6" transform="translate(0,0)"/>
<path d="" fill="#1EACF8" transform="translate(0,0)"/>
<path d="" fill="#1EABF4" transform="translate(0,0)"/>
<path d="" fill="#1CABF3" transform="translate(0,0)"/>
<path d="" fill="#1BABF8" transform="translate(0,0)"/>
<path d="" fill="#1CAEF4" transform="translate(0,0)"/>
<path d="" fill="#20AEF5" transform="translate(0,0)"/>
<path d="" fill="#1EADF6" transform="translate(0,0)"/>
<path d="" fill="#1CABF7" transform="translate(0,0)"/>
<path d="" fill="#1EADF4" transform="translate(0,0)"/>
<path d="" fill="#19ABF5" transform="translate(0,0)"/>
<path d="" fill="#1DACF5" transform="translate(0,0)"/>
<path d="" fill="#1FACF6" transform="translate(0,0)"/>
<path d="" fill="#1EAEF7" transform="translate(0,0)"/>
<path d="" fill="#20ACF5" transform="translate(0,0)"/>
<path d="" fill="#1FABF6" transform="translate(0,0)"/>
<path d="" fill="#1CABF5" transform="translate(0,0)"/>
<path d="" fill="#1CA9F6" transform="translate(0,0)"/>
<path d="" fill="#1DADF6" transform="translate(0,0)"/>
<path d="" fill="#1DABF7" transform="translate(0,0)"/>
<path d="" fill="#1FABF4" transform="translate(0,0)"/>
<path d="" fill="#20AEF9" transform="translate(0,0)"/>
<path d="" fill="#1EADF7" transform="translate(0,0)"/>
<path d="" fill="#18AAF7" transform="translate(0,0)"/>
<path d="" fill="#21ABF4" transform="translate(0,0)"/>
<path d="" fill="#20ABF6" transform="translate(0,0)"/>
<path d="" fill="#1DABF6" transform="translate(0,0)"/>
<path d="" fill="#1DA9F4" transform="translate(0,0)"/>
<path d="" fill="#1EADF3" transform="translate(0,0)"/>
<path d="" fill="#1DACF6" transform="translate(0,0)"/>
<path d="" fill="#1DABF5" transform="translate(0,0)"/>
<path d="" fill="#21A8EF" transform="translate(0,0)"/>
<path d="" fill="#1DABF5" transform="translate(0,0)"/>
<path d="" fill="#1CAAF3" transform="translate(0,0)"/>
<path d="" fill="#1EABF4" transform="translate(0,0)"/>
<path d="" fill="#1BAAF6" transform="translate(0,0)"/>
<path d="" fill="#1DAAF7" transform="translate(0,0)"/>
<path d="" fill="#1BA9F1" transform="translate(0,0)"/>
<path d="" fill="#1DA9F1" transform="translate(0,0)"/>
<path d="" fill="#1EA9F2" transform="translate(0,0)"/>
<path d="" fill="#1EA8F2" transform="translate(0,0)"/>
<path d="" fill="#1EA8F1" transform="translate(0,0)"/>
<path d="" fill="#20A8F5" transform="translate(0,0)"/>
<path d="" fill="#21A9F2" transform="translate(0,0)"/>
<path d="" fill="#1CAAF3" transform="translate(0,0)"/>
<path d="" fill="#1EAAF1" transform="translate(0,0)"/>
<path d="" fill="#1EA9F3" transform="translate(0,0)"/>
<path d="" fill="#21A8F3" transform="translate(0,0)"/>
<path d="" fill="#1BADF5" transform="translate(0,0)"/>
<path d="" fill="#1CADF5" transform="translate(0,0)"/>
<path d="" fill="#23A5EE" transform="translate(0,0)"/>
<path d="" fill="#1FAAF5" transform="translate(0,0)"/>
<path d="" fill="#21ABEE" transform="translate(0,0)"/>
<path d="" fill="#21AAF1" transform="translate(0,0)"/>
<path d="" fill="#1FAAF4" transform="translate(0,0)"/>
<path d="" fill="#1BAFF5" transform="translate(0,0)"/>
<path d="" fill="#1AACF6" transform="translate(0,0)"/>
<path d="" fill="#1CB0F5" transform="translate(0,0)"/>
<path d="" fill="#20AAF1" transform="translate(0,0)"/>
<path d="" fill="#1FA7EE" transform="translate(0,0)"/>
<path d="" fill="#1A4A62" transform="translate(0,0)"/>
<path d="" fill="#1AACF4" transform="translate(0,0)"/>
<path d="" fill="#1AAAF2" transform="translate(0,0)"/>
<path d="" fill="#1FA9F3" transform="translate(0,0)"/>
<path d="" fill="#1EA6F1" transform="translate(0,0)"/>
<path d="" fill="#1BA9F2" transform="translate(0,0)"/>
<path d="" fill="#23A6EA" transform="translate(0,0)"/>
<path d="" fill="#21A6ED" transform="translate(0,0)"/>
<path d="" fill="#1EA8F1" transform="translate(0,0)"/>
<path d="" fill="#23AAEE" transform="translate(0,0)"/>
<path d="" fill="#0F2633" transform="translate(0,0)"/>
<path d="" fill="#1FA6EE" transform="translate(0,0)"/>
<path d="" fill="#1FA6F1" transform="translate(0,0)"/>
<path d="" fill="#26A8EF" transform="translate(0,0)"/>
<path d="" fill="#23ABF1" transform="translate(0,0)"/>
<path d="" fill="#1FA8F4" transform="translate(0,0)"/>
<path d="" fill="#1DADF6" transform="translate(0,0)"/>
<path d="" fill="#21AAF5" transform="translate(0,0)"/>
<path d="" fill="#1CA9F5" transform="translate(0,0)"/>
<path d="" fill="#23A9F2" transform="translate(0,0)"/>
<path d="" fill="#24A8F0" transform="translate(0,0)"/>
<path d="" fill="#20ABF2" transform="translate(0,0)"/>
<path d="" fill="#21A8F5" transform="translate(0,0)"/>
<path d="" fill="#20ABF3" transform="translate(0,0)"/>
<path d="" fill="#21AAF2" transform="translate(0,0)"/>
<path d="" fill="#20ADF3" transform="translate(0,0)"/>
<path d="" fill="#1FABF4" transform="translate(0,0)"/>
<path d="" fill="#1FAAF4" transform="translate(0,0)"/>
<path d="" fill="#20AAF0" transform="translate(0,0)"/>
<path d="" fill="#25ADF6" transform="translate(0,0)"/>
<path d="" fill="#22A8F3" transform="translate(0,0)"/>
<path d="" fill="#23AAF3" transform="translate(0,0)"/>
<path d="" fill="#21ABF3" transform="translate(0,0)"/>
<path d="" fill="#23AAF4" transform="translate(0,0)"/>
<path d="" fill="#2F3F4F" transform="translate(0,0)"/>
<path d="" fill="#21ADF7" transform="translate(0,0)"/>
<path d="" fill="#27A9F0" transform="translate(0,0)"/>
<path d="" fill="#22ADF7" transform="translate(0,0)"/>
<path d="" fill="#25A7F2" transform="translate(0,0)"/>
<path d="" fill="#21ACF7" transform="translate(0,0)"/>
<path d="" fill="#20AAF4" transform="translate(0,0)"/>
<path d="" fill="#20A9F4" transform="translate(0,0)"/>
<path d="" fill="#25A7F2" transform="translate(0,0)"/>
<path d="" fill="#24AEF7" transform="translate(0,0)"/>
<path d="" fill="#23AEF3" transform="translate(0,0)"/>
<path d="" fill="#1EADF6" transform="translate(0,0)"/>
<path d="" fill="#1EABF6" transform="translate(0,0)"/>
<path d="" fill="#26A5EF" transform="translate(0,0)"/>
<path d="" fill="#20AEF3" transform="translate(0,0)"/>
<path d="" fill="#20ADF7" transform="translate(0,0)"/>
<path d="" fill="#1DADF7" transform="translate(0,0)"/>
<path d="" fill="#23AEF7" transform="translate(0,0)"/>
<path d="" fill="#20ABF3" transform="translate(0,0)"/>
<path d="" fill="#22ABF1" transform="translate(0,0)"/>
<path d="" fill="#23A7ED" transform="translate(0,0)"/>
<path d="" fill="#26A4EC" transform="translate(0,0)"/>
<path d="" fill="#22A7EF" transform="translate(0,0)"/>
<path d="" fill="#21A7F0" transform="translate(0,0)"/>
<path d="" fill="#1EABEE" transform="translate(0,0)"/>
<path d="" fill="#21A9F0" transform="translate(0,0)"/>
<path d="" fill="#23A7F0" transform="translate(0,0)"/>
<path d="" fill="#1FA8EE" transform="translate(0,0)"/>
<path d="" fill="#1CABF5" transform="translate(0,0)"/>
<path d="" fill="#1CAAF1" transform="translate(0,0)"/>
<path d="" fill="#1EA9F2" transform="translate(0,0)"/>
<path d="" fill="#20A8F0" transform="translate(0,0)"/>
<path d="" fill="#1CACF3" transform="translate(0,0)"/>
<path d="" fill="#1DA7F2" transform="translate(0,0)"/>
<path d="" fill="#17A9F4" transform="translate(0,0)"/>
<path d="" fill="#1FA9F0" transform="translate(0,0)"/>
<path d="" fill="#20ABF0" transform="translate(0,0)"/>
<path d="" fill="#1FA9F2" transform="translate(0,0)"/>
<path d="" fill="#1BA9F0" transform="translate(0,0)"/>
<path d="" fill="#18A9F2" transform="translate(0,0)"/>
<path d="" fill="#20ACF4" transform="translate(0,0)"/>
<path d="" fill="#1BA8F1" transform="translate(0,0)"/>
<path d="" fill="#1EA6ED" transform="translate(0,0)"/>
<path d="" fill="#1DAEF5" transform="translate(0,0)"/>
<path d="" fill="#1FA8F1" transform="translate(0,0)"/>
<path d="" fill="#19ACF5" transform="translate(0,0)"/>
<path d="" fill="#1DA8F3" transform="translate(0,0)"/>
<path d="" fill="#18AAF7" transform="translate(0,0)"/>
<path d="" fill="#1BA7F4" transform="translate(0,0)"/>
<path d="" fill="#20ACF5" transform="translate(0,0)"/>
<path d="" fill="#1EA5F0" transform="translate(0,0)"/>
<path d="" fill="#1DA8F3" transform="translate(0,0)"/>
<path d="" fill="#1DAAF4" transform="translate(0,0)"/>
<path d="" fill="#1EAAF6" transform="translate(0,0)"/>
<path d="" fill="#20ADF2" transform="translate(0,0)"/>
<path d="" fill="#1DABF4" transform="translate(0,0)"/>
<path d="" fill="#1CA9F2" transform="translate(0,0)"/>
<path d="" fill="#1EA8F2" transform="translate(0,0)"/>
<path d="" fill="#1DACF4" transform="translate(0,0)"/>
<path d="" fill="#1DA8F1" transform="translate(0,0)"/>
<path d="" fill="#1EABF2" transform="translate(0,0)"/>
<path d="" fill="#1FA8F0" transform="translate(0,0)"/>
<path d="" fill="#1EA7EF" transform="translate(0,0)"/>
<path d="" fill="#000A0B" transform="translate(0,0)"/>
<path d="" fill="#071E2B" transform="translate(0,0)"/>
<path d="" fill="#12374D" transform="translate(0,0)"/>
</svg>
